<svg xmlns="http://www.w3.org/2000/svg" width="20" height="20" viewBox="0 0 20 20">
    <g fill="#CCC" fill-rule="evenodd">
        <path d="M16.346 12.097h-1.5v-2.35c0-.24-.195-.434-.435-.434H2.597c-.24 0-.434.194-.434.434v2.35H.661c-.361 0-.654.293-.654.653 0 .361.293.653.654.653h1.5v2.35c0 .24.195.434.435.434H14.41c.24 0 .434-.194.434-.434v-2.35h1.501c.362 0 .654-.292.654-.653 0-.36-.292-.653-.654-.653M11.414 0c.36 0 .653.293.653.653v2.564h4.28c.36 0 .653.292.653.654 0 .36-.293.653-.654.653h-4.279v2.564c0 .36-.292.653-.653.653H5.459c-.36 0-.653-.293-.653-.653V4.524H.653C.293 4.524 0 4.23 0 3.87c0-.362.293-.654.653-.654h4.153V.653c0-.36.292-.653.653-.653zm-.654 1.307H6.113v5.127h4.647V1.307z" transform="translate(1.5 1.5)"/>
    </g>
</svg>
