<svg xmlns="http://www.w3.org/2000/svg" xmlns:xlink="http://www.w3.org/1999/xlink" width="130" height="36" viewBox="0 0 130 36">
    <defs>
        <path id="prefix__a" d="M0.289 0.226L7.358 0.226 7.358 3.678 0.289 3.678z"/>
        <path id="prefix__c" d="M0 0L34.469 0 34.469 35.155 0 35.155z"/>
    </defs>
    <g fill="none" fill-rule="evenodd">
        <path fill="#FFF" d="M54.022 11.26l-.213 3.935h-.88c-3.708 0-5.41 2.324-5.41 6.632v4.99h-4.01V11.352h4.01v2.82c1.216-1.798 2.978-3.037 5.44-3.037.395 0 .698 0 1.063.124M67.633 19.1c0-2.85-2.157-4.648-4.314-4.648-2.43 0-4.254 1.797-4.254 4.648s1.823 4.617 4.254 4.617c2.157 0 4.314-1.766 4.314-4.617zm4.011 7.716h-4.01v-1.208c-1.276 1.053-2.948 1.673-5.014 1.673-3.858 0-7.444-3.316-7.444-8.18 0-4.866 3.586-8.213 7.444-8.213 2.066 0 3.738.62 5.013 1.704v-1.24h4.011v15.464zM89.027 17.396v9.42h-4.01v-8.553c0-2.169-1.216-3.625-3.07-3.625-2.278 0-3.767 1.549-3.767 5.33v6.848h-4.01V11.353h4.01v1.394c1.185-1.208 2.765-1.859 4.77-1.859 3.646 0 6.077 2.665 6.077 6.508M102.214 26.693L96.259 20.65 95.56 20.65 95.56 26.693 91.55 26.693 91.55 4.381 95.56 4.381 95.56 16.622 96.29 16.622 101.728 11.23 106.772 11.23 99.45 18.636 107.562 26.693zM122.237 26.693L108.777 26.693 108.777 24.028 116.919 14.577 108.989 14.577 108.989 11.23 121.872 11.23 121.872 13.957 113.73 23.346 122.237 23.346z"/>
        <g transform="translate(121.583 4.155)">
            <mask id="prefix__b" fill="#fff">
                <use xlink:href="#prefix__a"/>
            </mask>
            <path fill="#FFF" d="M7.11 3.678V.771l-1.444 2.88H5.47L4.025.772v2.907h-.247V.226h.247l1.55 3.04L7.122.227h.235v3.452H7.11zM1.838.452v3.226h-.26V.452H.29V.226h2.838v.226H1.838z" mask="url(#prefix__b)"/>
        </g>
        <mask id="prefix__d" fill="#fff">
            <use xlink:href="#prefix__c"/>
        </mask>
        <path fill="#FFF" d="M23.163 24.49c0 1.292-1.027 2.34-2.296 2.34-1.266 0-2.294-1.048-2.294-2.34v-8.565h-8.116c-1.27 0-2.294-1.048-2.294-2.34 0-1.293 1.025-2.342 2.294-2.342h10.41c1.269 0 2.296 1.049 2.296 2.343V24.49zM17.235 0C.132 0 0 7.868 0 17.578c0 9.709.132 17.577 17.235 17.577 17.103 0 17.234-7.868 17.234-17.577C34.47 7.868 34.338 0 17.235 0z" mask="url(#prefix__d)"/>
    </g>
</svg>
