<svg xmlns="http://www.w3.org/2000/svg" width="20" height="20" viewBox="0 0 20 20">
    <g fill="#CCC" fill-rule="evenodd">
        <path d="M1.078 2.188h10.071c.574 0 1.078-.511 1.078-1.094C12.226.51 11.723 0 11.149 0H1.078C.503 0 0 .511 0 1.094c0 .583.503 1.094 1.078 1.094M7.308 4.375h-6.23C.502 4.375 0 4.885 0 5.469c0 .582.503 1.093 1.077 1.093h6.231c.524 0 .952-.383 1.064-.954l.013-.14c0-.582-.503-1.093-1.077-1.093M3.7 8.797H1.079C.503 8.797 0 9.308 0 9.891c0 .582.503 1.093 1.078 1.093H3.7c.488 0 .923-.379 1.056-.921l.02-.172c0-.583-.502-1.094-1.076-1.094M13.07 6.467c2.376 0 4.31 1.963 4.31 4.375 0 1.071-.383 2.053-1.015 2.814l1.392 1.415c.157.158.243.37.243.597 0 .227-.086.44-.243.598-.14.144-.358.234-.566.234-.204 0-.369-.083-.49-.145l-.068-.035-1.577-1.6c-.595.315-1.27.496-1.987.496-2.376 0-4.31-1.962-4.31-4.374s1.934-4.375 4.31-4.375zm0 1.712c-1.423 0-2.624 1.22-2.624 2.663 0 1.443 1.201 2.663 2.623 2.663 1.423 0 2.624-1.22 2.624-2.663 0-1.469-1.177-2.663-2.624-2.663z" transform="translate(1.5 2.5)"/>
    </g>
</svg>
