<svg xmlns="http://www.w3.org/2000/svg" width="20" height="20" viewBox="0 0 20 20">
    <path fill="#CCC" d="M16 1.5c1.657 0 3 1.269 3 2.833v11.334c0 1.564-1.343 2.833-3 2.833H4c-1.657 0-3-1.269-3-2.833V4.333C1 2.77 2.343 1.5 4 1.5h12zm-5.956 6.819c-.927 0-1.682.754-1.682 1.68 0 .928.755 1.676 1.682 1.676.927 0 1.68-.748 1.68-1.675 0-.466-.19-.881-.494-1.186-.3-.305-.726-.495-1.186-.495zm-4.613 0c-.927 0-1.681.754-1.681 1.68 0 .928.754 1.676 1.681 1.676S7.112 10.927 7.112 10c0-.466-.19-.881-.494-1.186-.3-.305-.726-.495-1.187-.495zm9.225 0c-.927 0-1.681.754-1.681 1.68 0 .928.754 1.676 1.681 1.676s1.681-.748 1.681-1.675c0-.466-.19-.881-.495-1.186-.3-.305-.725-.495-1.186-.495z"/>
</svg>
