<svg xmlns="http://www.w3.org/2000/svg" width="20" height="20" viewBox="0 0 20 20">
    <g fill="#CCC" fill-rule="evenodd">
        <path d="M3.488 9.987v-.79c1.011-.222 1.76-1.051 1.84-2.022.081-.85-.283-1.638-1.01-2.164-.405-.284-.89-.405-1.356-.405h-.627c-.202 0-.385-.08-.526-.243-.142-.161-.202-.344-.182-.546.04-.364.364-.647.768-.647h.81c.202 0 .384.162.424.344.04.162.182.283.344.283h.89c.101 0 .203-.04.263-.121.06-.081.101-.162.081-.263-.101-.95-.81-1.68-1.74-1.82v-.75C3.467.663 3.306.5 3.124.5h-.93c-.183 0-.345.162-.345.344v.768C.696 1.855-.093 2.927.01 4.121.13 5.294 1.182 6.224 2.416 6.224h.586c.203 0 .385.081.526.243.142.162.202.344.182.546-.04.364-.364.648-.768.648h-.81c-.182 0-.384-.162-.424-.344-.04-.162-.182-.284-.344-.284h-.91c-.102 0-.203.04-.263.122-.06.08-.101.162-.081.263.1.95.809 1.679 1.74 1.82v.749c0 .182.161.343.343.343h.93c.203 0 .365-.161.365-.343M18 11.646c0-.729-.607-1.336-1.335-1.336-.485 0-.89.243-1.133.627v-.02c0-.728-.606-1.334-1.335-1.334-.465 0-.89.242-1.132.626v-.04c0-.729-.607-1.335-1.336-1.335-.465 0-.89.243-1.132.627v-4.47c0-.364-.142-.688-.385-.951-.242-.243-.586-.385-.95-.385-.728 0-1.335.608-1.335 1.336v8.232c0 .081-.04.141-.122.162-.08.02-.141.02-.202-.04l-1.355-1.356c-.465-.445-1.173-.526-1.72-.162-.323.223-.525.547-.586.931-.06.385.06.768.303 1.052l3.378 4.065c.95 1.154 2.367 1.821 3.864 1.821h2.104c1.173 0 2.285-.465 3.115-1.295.85-.809 1.294-1.901 1.294-3.074v-3.681z" transform="translate(1)"/>
    </g>
</svg>
