<svg xmlns="http://www.w3.org/2000/svg" width="20" height="20" viewBox="0 0 20 20">
    <g fill="#CCC" fill-rule="evenodd">
        <path d="M15.07 17.838h.83c.795 0 1.44-.644 1.44-1.44V6.744c0-.795-.645-1.44-1.44-1.44h-.83c-.795 0-1.44.645-1.44 1.44v9.654c0 .796.645 1.44 1.44 1.44zM9.34 17.838h.828c.796 0 1.44-.644 1.44-1.44v-5.625c0-.795-.644-1.44-1.44-1.44H9.34c-.795 0-1.44.645-1.44 1.44v5.625c0 .796.645 1.44 1.44 1.44zM7.447 6.555l.032-3.375c0-.099-.019-.197-.058-.29l-.005-.01c-.037-.083-.09-.162-.16-.23-.07-.067-.151-.118-.238-.153l-.01-.005c-.096-.038-.198-.057-.3-.056l-3.496.03c-.428.004-.78.343-.783.757-.004.414.34.746.769.742l1.624-.014-2.564 2.476c-.306.295-.31.77-.01 1.06.3.29.791.285 1.097-.01L5.91 5l-.014 1.568c-.002.207.083.394.222.528s.332.216.547.214c.428-.003.78-.342.783-.756M3.608 17.838h.83c.794 0 1.44-.644 1.44-1.44V15.25c0-.795-.646-1.44-1.44-1.44h-.83c-.795 0-1.44.645-1.44 1.44v1.15c0 .795.645 1.44 1.44 1.44z" transform="translate(1 .306)"/>
    </g>
</svg>
