<svg xmlns="http://www.w3.org/2000/svg" width="20" height="20" viewBox="0 0 20 20">
    <path fill="#CCC" fill-rule="evenodd" d="M15.214 8.235L12.25 11.2c-.122.117-.28.18-.45.18-.17 0-.328-.063-.45-.18L9.286 9.135l-.186-.19-.185.19-2.07 2.065c-.116.122-.276.185-.445.185-.17 0-.328-.063-.45-.185l-1.164-1.165c-.244-.248-.244-.65 0-.9.12-.116.28-.185.45-.185.169 0 .328.069.45.185l.528.53.186.19.185-.19L8.655 7.6c.117-.122.276-.185.445-.185.17 0 .328.063.45.185l2.064 2.065.186.19.185-.19 2.33-2.33c.121-.116.28-.185.45-.185.164 0 .328.069.45.185.243.25.243.652 0 .9M18.1 2.65h-7.2c0-.498-.402-.9-.9-.9s-.9.402-.9.9H1.9c-.498 0-.9.402-.9.9s.402.9.9.9v9c0 .995.804 1.8 1.8 1.8h4.14l-.98 2.457c-.221.544.186 1.143.774 1.143.343 0 .65-.206.778-.524L9.64 15.25h.72l1.228 3.076c.128.318.435.524.778.524.588 0 .996-.599.773-1.143l-.98-2.457H16.3c.996 0 1.8-.805 1.8-1.8v-9c.498 0 .9-.402.9-.9s-.402-.9-.9-.9"/>
</svg>
